<svg xmlns="http://www.w3.org/2000/svg" viewBox="0 0 149 149" width="100%" height="100%">
  <style>
    path {
      fill: #ffffff; /* Default to white for dark theme websites / dark tabs */
    }
    @media (prefers-color-scheme: light) {
      path {
        fill: #000000; /* Use black in light mode tabs */
      }
    }
  </style>
  <path d="M8,13 L8,26 L17,27 L17,29 L18,33 L19,36 L21,39 L21,41 L23,44 L23,46 L26,51 L26,53 L29,58 L29,60 L32,65 L32,67 L35,72 L35,74 L38,79 L38,81 L41,86 L41,88 L44,93 L44,95 L47,100 L47,102 L50,107 L50,109 L53,114 L53,116 L56,121 L56,123 L59,128 L59,130 L60,132 L76,132 L76,130 L78,127 L78,125 L79,122 L81,119 L81,117 L82,114 L84,111 L84,109 L85,106 L87,103 L87,101 L88,98 L90,95 L90,93 L91,90 L93,87 L93,85 L94,82 L96,79 L96,77 L97,74 L99,71 L99,69 L100,66 L102,63 L102,61 L104,58 L104,56 L105,53 L107,50 L107,48 L108,45 L109,42 L113,34 L116,30 L118,28 L121,26 L123,25 L127,25 L127,13 L89,13 L89,26 L101,27 L100,29 L97,34 L96,37 L95,40 L95,42 L93,45 L92,48 L91,51 L91,53 L89,56 L88,59 L87,62 L86,65 L86,67 L84,70 L84,72 L83,75 L82,78 L80,81 L79,84 L79,86 L78,89 L77,92 L76,95 L74,99 L72,97 L72,95 L70,92 L70,90 L68,87 L68,85 L67,82 L64,77 L64,75 L62,72 L62,70 L60,67 L60,65 L58,62 L58,60 L56,57 L56,55 L53,50 L53,48 L51,45 L51,43 L49,40 L48,37 L47,34 L47,29 L50,26 L52,25 L56,25 L58,24 L58,13 Z" />
  <path d="M124,109 L123,110 L119,113 L117,115 L116,117 L116,127 L118,131 L120,133 L124,135 L132,135 L136,133 L138,131 L140,127 L140,118 L139,115 L137,113 L132,109 Z" />
</svg>
